<?xml version="1.0" encoding="UTF-8" standalone="no"?>
<svg
   xmlns:dc="http://purl.org/dc/elements/1.1/"
   xmlns:cc="http://creativecommons.org/ns#"
   xmlns:rdf="http://www.w3.org/1999/02/22-rdf-syntax-ns#"
   xmlns:svg="http://www.w3.org/2000/svg"
   xmlns="http://www.w3.org/2000/svg"
   xmlns:sodipodi="http://sodipodi.sourceforge.net/DTD/sodipodi-0.dtd"
   xmlns:inkscape="http://www.inkscape.org/namespaces/inkscape"
   viewBox="0 0 500 500"
   version="1.1"
   id="svg123"
   sodipodi:docname="15.1.svg"
   inkscape:version="1.0.1 (3bc2e813f5, 2020-09-07)">
  <metadata
     id="metadata127">
    <rdf:RDF>
      <cc:Work
         rdf:about="">
        <dc:format>image/svg+xml</dc:format>
        <dc:type
           rdf:resource="http://purl.org/dc/dcmitype/StillImage" />
        <dc:title />
      </cc:Work>
    </rdf:RDF>
  </metadata>
  <sodipodi:namedview
     pagecolor="#ffffff"
     bordercolor="#666666"
     borderopacity="1"
     objecttolerance="10"
     gridtolerance="10"
     guidetolerance="10"
     inkscape:pageopacity="0"
     inkscape:pageshadow="2"
     inkscape:window-width="1680"
     inkscape:window-height="997"
     id="namedview125"
     showgrid="false"
     inkscape:zoom="1.47"
     inkscape:cx="279.50725"
     inkscape:cy="254.34259"
     inkscape:window-x="-8"
     inkscape:window-y="-8"
     inkscape:window-maximized="1"
     inkscape:current-layer="g121"
     inkscape:document-rotation="0" />
  <defs
     id="defs23">
    <filter
       id="e"
       x="-.35054"
       y="-4.1905"
       width="1.7011"
       height="9.381">
      <feGaussianBlur
         stdDeviation="38.80303"
         id="feGaussianBlur2" />
    </filter>
    <filter
       id="d"
       x="-.0764"
       y="-.60466"
       width="1.1528"
       height="2.2093">
      <feGaussianBlur
         stdDeviation="5.98076"
         id="feGaussianBlur5" />
    </filter>
    <radialGradient
       id="c"
       cx="182.49"
       cy="275.46"
       r="210.36"
       gradientTransform="matrix(1 0 0 .09074 0 250.47)"
       gradientUnits="userSpaceOnUse">
      <stop
         stop-color="#fff"
         offset="0"
         id="stop8" />
      <stop
         stop-color="#b3b3b3"
         offset="1"
         id="stop10" />
    </radialGradient>
    <radialGradient
       id="b"
       cx="474.45"
       cy="272.02"
       r="75.448"
       gradientTransform="matrix(1.0036 0 0 .24447 -1.7797 205.16)"
       gradientUnits="userSpaceOnUse">
      <stop
         stop-color="#696969"
         offset="0"
         id="stop13" />
      <stop
         stop-color="#3f3f3f"
         offset="1"
         id="stop15" />
    </radialGradient>
    <radialGradient
       id="a"
       cx="206.54"
       cy="444.51"
       r="229.58"
       gradientTransform="matrix(1 0 0 .09502 -10 299.42)"
       gradientUnits="userSpaceOnUse">
      <stop
         stop-color="#535353"
         offset="0"
         id="stop18" />
      <stop
         stop-color="#262626"
         offset="1"
         id="stop20" />
    </radialGradient>
  </defs>
  <g
     transform="matrix(0.78394,-0.37546,0.37546,0.78394,-50.475,106.3)"
     id="g121"
     style="display:inline">
    <path
       style="fill:#d40000;stroke-width:15.5161;stroke-linecap:round;paint-order:stroke fill markers"
       id="path952"
       transform="rotate(25.591612)"
       sodipodi:type="arc"
       sodipodi:cx="351.16443"
       sodipodi:cy="147.73589"
       sodipodi:rx="279.79004"
       sodipodi:ry="256.40149"
       sodipodi:start="1.8816395"
       sodipodi:end="1.7875662"
       sodipodi:open="true"
       sodipodi:arc-type="arc"
       d="M 265.58742,391.84959 A 279.79004,256.40149 0 0 1 82.844267,75.074843 279.79004,256.40149 0 0 1 424.12171,-99.795239 279.79004,256.40149 0 0 1 622.91594,208.75497 279.79004,256.40149 0 0 1 290.98825,398.13688" />
    <path
       d="m 393.45,270.7 c -135.07,7.8983 -294.32,11.134 -410.63,-12.122 -13.637,-4.0406 -14.142,-4.5457 -14.142,-4.5457 0,0 10.607,14.142 17.173,16.162 142.46,30.073 259.57,27.892 394.46,21.213 l 14.142,-0.50508"
       fill="none"
       stroke="#b3b3b3"
       id="path25" />
    <path
       d="m 391.94,269.69 c 0,0 1.0102,-8.0812 3.0305,-10.607 2.0203,-2.5258 3.0304,6.0609 4.0406,14.142 1.0102,8.0811 0.50507,26.264 -1.0102,29.8 -1.51527,3.536 -4.0406,-1.0102 -4.0406,-1.0102 l -1.0102,-33.84"
       fill="none"
       stroke="#999999"
       id="path27"
       style="fill:#b3b3b3" />
    <path
       d="m 398.51,268.17 c 0,0 116.17,-6.0609 132.84,-11.112 16.67,-5.0511 17.173,-2.5254 17.173,-2.5254 0,0 1.9897,3.5355 1.4846,12.627 -0.5051,9.0915 1.0408,9.8617 -1.4846,9.8617 -2.5254,0 -127.28,12.867 -137.38,12.867 h -10.102"
       fill="none"
       stroke="#414141"
       id="path29" />
    <path
       d="m 200.16,294.29 c -37.428,-0.88394 -83.66,-4.4035 -121.98,-9.2858 -35.015,-4.4616 -89.888,-14.165 -94.075,-16.635 -4.0135,-2.368 -13.118,-11.567 -11.863,-11.986 0.27214,-0.0907 2.6275,0.5144 5.2341,1.3447 2.6066,0.8303 9.7396,2.4221 15.851,3.5373 88.783,16.201 210.5,20.031 370.98,11.673 15.14,-0.78858 27.64,-1.323 27.779,-1.1876 0.139,0.1354 0.36618,4.3024 0.50508,9.2601 l 0.25253,9.0139 -4.5457,0.2848 c -9.9645,0.62429 -66.089,2.8718 -89.43,3.5812 -21.685,0.65908 -78.068,0.88759 -98.711,0.40005 z"
       fill="url(#c)"
       id="path31" />
    <path
       d="m 373.31,289.12 c -0.17474,-1.1906 -0.0355,-1.5441 0.608,-1.5441 0.45905,0 2.4084,-0.54849 4.3319,-1.2189 5.0145,-1.7476 6.5957,-1.9439 10.554,-1.3101 1.9365,0.31009 3.5989,0.6417 3.6941,0.73692 0.0952,0.0952 0.19266,0.86048 0.21655,1.7006 0.076,2.6739 -0.53895,2.855 -10.274,3.0246 l -8.9036,0.15514 -0.22662,-1.5441 z"
       fill="#f9f9f9"
       fill-opacity="0.61961"
       id="path49" />
    <path
       d="m 376.79,271.2 h 16.668 v 19.698 H 376.79 Z"
       fill="#ccc"
       opacity="0.80088"
       id="path73"
       style="fill:#999999" />
    <path
       d="m 399.99,283.56 c -0.0332,-3.4443 -0.29015,-8.2067 -0.57083,-10.583 l -0.51035,-4.3208 4.3342,-0.41009 c 2.3838,-0.22556 15.463,-1.1127 29.065,-1.9714 29.915,-1.8886 73.871,-5.5799 85.661,-7.1936 4.7311,-0.64752 12.578,-2.1936 17.438,-3.4357 10.672,-2.7276 11.989,-2.7827 13.144,-0.55045 1.3396,2.5878 1.7556,20.501 0.5007,21.566 -1.4567,1.2354 -131.37,13.153 -143.45,13.159 l -5.5554,0.003 -0.0605,-6.2623 z"
       fill="url(#b)"
       id="path77"
       style="fill:#000000" />
    <path
       transform="matrix(0.58627,-0.81012,0.35065,0.93651,0,0)"
       d="m 339.08,590.14 h 8.3136 v 8.46 H 339.08 Z"
       fill="#808080"
       opacity="0.80088"
       id="path79"
       style="fill:#800000" />
    <path
       d="m 247.95,594.33 h 8.3136 v 8.46 H 247.95 Z"
       fill="#808080"
       opacity=".80088"
       id="path81"
       style="fill:#800000"
       transform="matrix(0.41453,-0.91004,0.52888,0.8487,0,0)" />
    <path
       transform="matrix(0.41453,-0.91004,0.52888,0.8487,0,0)"
       d="m 261,607.06 h 8.3136 v 8.46 H 261 Z"
       fill="#808080"
       opacity="0.80088"
       id="path83"
       style="fill:#800000" />
    <path
       transform="matrix(0.41453,-0.91004,0.52888,0.8487,0,0)"
       d="m 272.5,618.98 h 8.3136 v 8.46 H 272.5 Z"
       fill="#808080"
       opacity="0.80088"
       id="path85"
       style="fill:#800000" />
    <path
       d="m 285.78,631.53 h 8.3136 v 8.46 H 285.78 Z"
       fill="#808080"
       opacity=".80088"
       id="path87"
       style="fill:#800000"
       transform="matrix(0.41453,-0.91004,0.52888,0.8487,0,0)" />
    <path
       transform="matrix(0.41453,-0.91004,0.52888,0.8487,0,0)"
       d="m 297.74,643.09 h 8.3136 v 8.46 H 297.74 Z"
       fill="#808080"
       opacity="0.80088"
       id="path89"
       style="fill:#800000" />
    <path
       d="m 308.15,653.84 h 8.3136 v 8.46 H 308.15 Z"
       fill="#808080"
       opacity=".80088"
       id="path91"
       style="fill:#800000"
       transform="matrix(0.41453,-0.91004,0.52888,0.8487,0,0)" />
    <path
       d="m 318.88,663.66 h 8.3136 v 8.46 H 318.88 Z"
       fill="#808080"
       opacity=".80088"
       id="path93"
       style="fill:#800000"
       transform="matrix(0.41453,-0.91004,0.52888,0.8487,0,0)" />
    <path
       d="m 331.93,676.39 h 8.3136 v 8.46 H 331.93 Z"
       fill="#808080"
       opacity=".80088"
       id="path95"
       style="fill:#800000"
       transform="matrix(0.41453,-0.91004,0.52888,0.8487,0,0)" />
    <path
       transform="matrix(0.41453,-0.91004,0.52888,0.8487,0,0)"
       d="m 343.53,687.56 h 8.3136 v 8.46 H 343.53 Z"
       fill="#808080"
       opacity="0.80088"
       id="path97"
       style="fill:#800000" />
    <path
       d="m 355.71,698.94 h 8.3136 v 8.46 H 355.71 Z"
       fill="#808080"
       opacity="0.80088"
       id="path99"
       style="fill:#800000"
       transform="matrix(0.41453,-0.91004,0.52888,0.8487,0,0)" />
    <path
       transform="matrix(0.41453,-0.91004,0.52888,0.8487,0,0)"
       d="m 367.67,710.5 h 8.3136 v 8.46 H 367.67 Z"
       fill="#808080"
       opacity="0.80088"
       id="path101"
       style="fill:#800000" />
    <path
       d="m 540.19506,255.37459 c 0.30846,0.80476 0.59622,1.61707 0.90083,2.42344 0.40897,1.1212 0.83904,2.23448 1.21472,3.36746 0.34183,1.03387 0.5997,2.09194 0.83521,3.15418 0.20536,0.93865 0.36588,1.88609 0.51003,2.8358 0.1275,0.85232 0.22378,1.70878 0.3098,2.56614 0.0787,0.79867 0.13656,1.59916 0.18812,2.39998 0.0484,0.7658 0.0832,1.53234 0.11423,2.299 0.0296,0.74568 0.0506,1.49165 0.0694,2.23767 0.0323,0.58023 0.0864,1.15897 0.13231,1.73823 l -0.31638,0.16437 c -0.0459,-0.57986 -0.0999,-1.15919 -0.13316,-1.73996 -0.0187,-0.74586 -0.0397,-1.49167 -0.0691,-2.23719 -0.0309,-0.76641 -0.0656,-1.5327 -0.11382,-2.29825 -0.0514,-0.80045 -0.109,-1.60057 -0.1875,-2.39888 -0.0857,-0.85683 -0.18172,-1.71276 -0.3089,-2.56457 -0.14376,-0.94901 -0.30387,-1.89575 -0.5088,-2.83373 -0.23494,-1.06116 -0.49217,-2.11819 -0.83338,-3.15104 -0.37525,-1.13262 -0.8052,-2.24544 -1.21397,-3.3662 -0.30475,-0.8063 -0.59262,-1.61857 -0.90163,-2.4231 l 0.31203,-0.17335 z"
       fill="#333333"
       opacity="0.80088"
       id="path103" />
    <path
       d="m 545.8,275.82 c 2.6252,-2.7607 2.1654,-6.3331 -1.0894,-8.4645 -0.86092,-0.56378 -1.1383,-1.0529 -1.3162,-2.3214 -0.12399,-0.88393 -0.7685,-3.2143 -1.4322,-5.1786 -0.6637,-1.9643 -1.162,-3.6193 -1.1071,-3.6778 0.28659,-0.30577 5.0069,-0.81892 5.7704,-0.6273 1.4806,0.37161 1.9524,2.1909 2.3648,9.1192 0.34806,5.847 0.19406,10.413 -0.38139,11.308 -0.13627,0.21198 -1.0513,0.50222 -2.0335,0.64496 l -1.7857,0.25953 1.0104,-1.0626 z"
       fill="#333333"
       opacity="0.80088"
       id="path105" />
    <path
       d="m 544.56,275.36 c -0.0251,-0.66884 -0.0776,-2.0196 -0.11668,-3.0018 -0.0391,-0.9822 -0.19989,-2.6696 -0.35747,-3.75 l -0.28652,-1.9643 1.4824,1.4194 c 1.989,1.9044 2.4484,3.5937 1.5335,5.6383 -0.37252,0.83255 -1.0221,1.8199 -1.4434,2.1941 l -0.76613,0.68035 -0.0457,-1.2161 z"
       fill="#333333"
       opacity="0.80088"
       id="path107" />
    <path
       d="m 544.62,274.11 c -0.006,-1.1989 -0.11334,-3.2078 -0.23808,-4.4643 l -0.22679,-2.2845 1.0937,1.0241 c 2.2072,2.0667 2.2989,4.5906 0.25119,6.9173 l -0.86873,0.98713 -0.0113,-2.1798 z"
       fill="#333333"
       opacity="0.80088"
       id="path109" />
    <path
       d="m 546.56,275.13 c 0.67879,-0.99894 0.90573,-1.7922 0.90573,-3.1661 0,-1.9174 -0.50534,-2.8561 -2.5733,-4.7805 -0.7502,-0.69809 -1.2847,-2.0145 -2.391,-5.889 -0.78364,-2.7445 -1.3658,-5.049 -1.2936,-5.1212 0.0722,-0.0722 1.4139,-0.2191 2.9816,-0.32655 l 2.8504,-0.19538 0.54253,1.0492 c 0.75832,1.4664 1.3119,7.0114 1.3119,13.141 0,4.7165 -0.0655,5.2582 -0.71429,5.9069 -0.39285,0.39286 -1.1219,0.71429 -1.62,0.71429 h -0.90574 l 0.90574,-1.3329 z"
       fill="#333333"
       opacity="0.80088"
       id="path111" />
    <path
       d="m 545.5513,265.70406 c 0.20874,0.48167 0.43468,0.95629 0.65787,1.43156 0.33759,0.72164 0.65219,1.45326 0.9059,2.20873 0.22964,0.65171 0.32692,1.3156 0.25963,2.00172 -0.0708,0.36326 -0.11878,0.79962 -0.37114,1.09191 -0.14199,0.0459 -0.27789,0.11919 -0.42595,0.13771 -0.21172,0.0265 -0.34481,-0.60266 -0.37481,-0.71389 -0.12985,-0.55706 -0.19323,-1.12692 -0.2557,-1.69466 -0.0311,-0.45949 -0.037,-0.93226 0.088,-1.379 0.36969,-0.80538 0.57455,0.0617 0.65686,0.33585 0.20896,0.67903 0.35422,1.37467 0.4875,2.07174 0.12463,0.63429 0.21065,1.27535 0.2215,1.92198 -0.006,0.22556 0.0671,0.42427 -0.34164,0.29598 -0.0936,-0.0294 -0.0118,-0.19585 -0.0161,-0.29386 -0.0155,-0.45281 -0.0201,-0.90591 -0.0247,-1.35893 0.006,-0.71646 -0.0142,-1.43122 -0.0665,-2.14571 -0.0193,-0.2083 -0.0352,-0.41744 -0.0672,-0.62434 -0.008,-0.0509 -0.0857,-0.13371 -0.0369,-0.14993 0.0933,-0.031 0.19425,-0.0305 0.29138,-0.0458 -0.0331,0.50661 0.0581,1.01083 0.13817,1.50903 0.13687,0.63297 0.27843,1.26453 0.39593,1.90149 0.12092,0.63482 0.20223,1.27444 0.20845,1.92082 0.0153,0.55779 -0.0521,1.09898 -0.22886,1.62733 -0.0951,0.25762 -0.36475,0.86176 -0.7564,0.63576 -0.15797,-0.1641 -0.14992,-0.39609 -0.13695,-0.60857 0.0335,-0.3536 0.0588,-0.7078 0.0795,-1.06235 0.0272,-0.51021 -0.0152,-1.02173 -0.039,-1.53151 -0.0289,-0.61842 -0.0492,-1.2372 -0.067,-1.85603 10e-4,-0.63401 -0.0612,-1.26457 -0.11639,-1.89537 -0.0571,-0.64267 -0.0982,-1.28656 -0.13427,-1.9307 -0.0552,-0.62327 -0.12781,-1.24438 -0.23099,-1.86149 l 0.31501,-0.16715 c 0.10372,0.6183 0.17673,1.24052 0.23277,1.86499 0.0359,0.6438 0.0769,1.28736 0.13378,1.9297 0.0553,0.63142 0.11893,1.26257 0.11734,1.89723 0.0177,0.61863 0.0378,1.23721 0.0667,1.85543 0.0238,0.51088 0.0665,1.02347 0.0408,1.53477 -0.0204,0.35462 -0.0449,0.70896 -0.0792,1.06253 -0.0138,0.19582 -0.0324,0.42147 0.11641,0.57273 0.14951,0.0676 0.0873,0.0163 -0.15513,0.20338 -0.0786,0.0607 0.44589,-0.54459 0.29003,-0.49185 0.17969,-0.52444 0.24973,-1.06146 0.23421,-1.61667 -0.004,-0.64456 -0.0852,-1.28232 -0.20553,-1.91534 -0.11726,-0.63727 -0.25839,-1.26918 -0.39632,-1.9022 -0.081,-0.5024 -0.1712,-1.0096 -0.14443,-1.52061 0.11396,-0.0944 0.21731,-0.20342 0.34189,-0.28335 0.0399,-0.0256 0.1057,0.78592 0.1087,0.78382 0.0526,0.71514 0.0741,1.43054 0.0675,2.1477 0.005,0.45263 0.009,0.90533 0.0244,1.35776 0.004,0.0975 0.0712,0.21231 0.0153,0.29225 -0.40973,0.58592 -0.28693,0.27225 -0.29248,0.0315 -0.009,-0.64483 -0.0941,-1.28412 -0.21837,-1.91662 -0.13277,-0.69595 -0.27732,-1.39054 -0.48596,-2.06842 -0.0115,-0.0384 -0.21468,-0.53339 -0.19706,-0.56493 0.0576,-0.10312 0.17213,-0.16187 0.26047,-0.24028 0.0419,-0.0372 -0.2172,0.21376 -0.0849,0.14519 -0.13102,0.44119 -0.12317,0.91122 -0.0945,1.36668 0.062,0.56605 0.12495,1.13417 0.25326,1.68978 0.0472,0.17684 0.088,0.37119 0.18728,0.52889 0.0405,0.0643 0.19709,0.0831 0.1684,0.15339 -0.0356,0.0872 -0.13194,0.13437 -0.19791,0.20155 0.27342,-0.25907 0.30322,-0.72676 0.38126,-1.07063 0.0711,-0.68153 -0.0244,-1.3406 -0.25248,-1.98839 -0.25267,-0.75439 -0.56696,-1.48468 -0.90394,-2.20511 -0.22315,-0.47494 -0.44913,-0.94924 -0.65784,-1.43056 l 0.31022,-0.17664 z"
       fill="#333333"
       opacity="0.80088"
       id="path113" />
    <path
       d="M 209.91,363.04 C 174.456,362.0036 104.89542,354.60071 21.515423,343.80691 -33.124577,336.73321 -33.034,337.5443 -33.034,330.599 c 0,-3.1752 2.4274,-9.8345 3.9109,-10.729 0.34913,-0.21053 6.9987,0.69655 14.777,2.0157 7.7783,1.31915 30.734,4.0054 51.013,5.9693 20.279,1.9639 49.598,4.916 65.155,6.5602 74.137,7.8356 89.974,8.9489 145.97,10.262 44.223,1.0371 55.182,0.94127 112.58,-0.98441 34.972,-1.1733 63.689,-2.0303 63.815,-1.9045 0.2956,0.2956 2.1585,19.329 1.9235,19.653 -1.0314,1.4209 -177.61,2.7272 -216.2,1.5993 z"
       fill="url(#a)"
       id="path115"
       style="fill:#1a1a1a"
       sodipodi:nodetypes="ccsssscsscccc" />
    <path
       d="m 424.07618,341.41576 c -0.1278,0.39871 -0.27225,0.79104 -0.38797,1.19381 -0.17346,0.64968 -0.35139,1.29757 -0.49452,1.95478 -0.14039,0.75501 -0.28869,1.50865 -0.42401,2.26465 -0.12228,0.72886 -0.28473,1.45004 -0.41781,2.177 -0.12712,0.70295 -0.21832,1.41154 -0.29913,2.12107 -0.092,0.72761 -0.0341,1.4637 0.0406,2.19007 0.0713,0.70005 0.1948,1.39344 0.34008,2.08149 0.11322,0.63099 0.31748,1.23845 0.5091,1.84835 0.17019,0.57422 0.36546,1.14074 0.57167,1.70292 0.20532,0.51424 0.43636,1.01805 0.73126,1.48721 0.28071,0.44112 0.59151,0.86317 0.91681,1.27234 0.22749,0.25447 0.1097,0.13132 0.35334,0.36951 l -0.30394,0.18668 c -0.24523,-0.24084 -0.12667,-0.11641 -0.35563,-0.3733 -0.32585,-0.41041 -0.63755,-0.8334 -0.9188,-1.27574 -0.29606,-0.47138 -0.52853,-0.9772 -0.73491,-1.49372 -0.20643,-0.56269 -0.40221,-1.12963 -0.57246,-1.70441 -0.19185,-0.61099 -0.3972,-1.21931 -0.51068,-1.85139 -0.14576,-0.68916 -0.27007,-1.38362 -0.34181,-2.08482 -0.0755,-0.72852 -0.13494,-1.467 -0.0441,-2.19693 0.0805,-0.71024 0.17135,-1.41955 0.29807,-2.12324 0.1326,-0.72705 0.29523,-1.44815 0.41792,-2.1769 0.13503,-0.75641 0.2841,-1.51024 0.42338,-2.26581 0.14224,-0.65803 0.32032,-1.30642 0.49343,-1.95681 0.11424,-0.40241 0.25513,-0.79498 0.38886,-1.19103 z"
       id="path117" />
    <path
       d="m 424.5,360.5 c -0.75434,-1.07 -1.9258,-4.9104 -2.194,-7.193 -0.2282,-1.9416 1.0849,-10.048 1.6879,-10.421 0.1748,-0.10803 0.31782,0.0148 0.31782,0.27299 0,0.25819 0.31937,3.5221 0.70971,7.2532 0.77872,7.4434 0.89964,10.891 0.38197,10.891 -0.18529,0 -0.59182,-0.36161 -0.9034,-0.80357 z"
       id="path119" />
    <text
       xml:space="preserve"
       style="font-style:normal;font-variant:normal;font-weight:normal;font-stretch:normal;font-size:96.3703px;line-height:1.25;font-family:'Segoe Print';-inkscape-font-specification:'Segoe Print, Normal';font-variant-ligatures:normal;font-variant-caps:normal;font-variant-numeric:normal;font-variant-east-asian:normal;fill:#000000;fill-opacity:1;stroke:none;stroke-width:2.40926"
       x="298.98083"
       y="320.6691"
       id="text874"
       transform="matrix(0.87170507,0.41749419,-0.44691404,0.9331321,0,0)"><tspan
         sodipodi:role="line"
         id="tspan872"
         x="298.98083"
         y="320.6691"
         style="font-style:normal;font-variant:normal;font-weight:normal;font-stretch:normal;font-size:96.3703px;font-family:'Segoe Print';-inkscape-font-specification:'Segoe Print, Normal';font-variant-ligatures:normal;font-variant-caps:normal;font-variant-numeric:normal;font-variant-east-asian:normal;stroke-width:2.40926">ZERO</tspan></text>
    <text
       xml:space="preserve"
       style="font-style:normal;font-variant:normal;font-weight:normal;font-stretch:normal;font-size:81.9846px;line-height:1.25;font-family:'Segoe Print';-inkscape-font-specification:'Segoe Print, Normal';font-variant-ligatures:normal;font-variant-caps:normal;font-variant-numeric:normal;font-variant-east-asian:normal;fill:#000000;fill-opacity:1;stroke:none;stroke-width:2.04963"
       x="150.3999"
       y="56.175571"
       id="text878"
       transform="matrix(0.7890358,0.3779006,-0.49373834,1.0308987,0,0)"><tspan
         sodipodi:role="line"
         id="tspan876"
         x="150.3999"
         y="56.175571"
         style="font-style:normal;font-variant:normal;font-weight:normal;font-stretch:normal;font-size:81.9846px;font-family:'Segoe Print';-inkscape-font-specification:'Segoe Print, Normal';font-variant-ligatures:normal;font-variant-caps:normal;font-variant-numeric:normal;font-variant-east-asian:normal;stroke-width:2.04963">KATANA</tspan></text>
  </g>
</svg>
